<?xml version="1.0" encoding="utf-8"?>
<!-- Generator: Adobe Illustrator 16.2.1, SVG Export Plug-In . SVG Version: 6.00 Build 0)  -->
<!DOCTYPE svg PUBLIC "-//W3C//DTD SVG 1.1//EN" "http://www.w3.org/Graphics/SVG/1.1/DTD/svg11.dtd">
<svg version="1.1" id="Layer_1" xmlns="http://www.w3.org/2000/svg" xmlns:xlink="http://www.w3.org/1999/xlink" x="0px" y="0px"
	 width="6.938px" height="10.795px" viewBox="0 0 6.938 10.795" enable-background="new 0 0 6.938 10.795" xml:space="preserve">
<g>
	<path fill="#969CA5" d="M6.811,5.699l-4.969,4.969c-0.085,0.085-0.186,0.127-0.301,0.127c-0.116,0-0.217-0.042-0.302-0.127
		L0.127,9.556C0.042,9.471,0,9.371,0,9.255c0-0.116,0.042-0.217,0.127-0.302l3.556-3.556L0.127,1.842C0.042,1.757,0,1.657,0,1.541
		s0.042-0.217,0.127-0.301l1.111-1.112C1.324,0.042,1.424,0,1.541,0c0.116,0,0.216,0.042,0.301,0.127l4.969,4.969
		c0.084,0.085,0.127,0.186,0.127,0.301C6.938,5.514,6.895,5.614,6.811,5.699z"/>
</g>
</svg>
