<?xml version="1.0" encoding="utf-8"?>
<!-- Generator: Adobe Illustrator 16.2.1, SVG Export Plug-In . SVG Version: 6.00 Build 0)  -->
<!DOCTYPE svg PUBLIC "-//W3C//DTD SVG 1.1//EN" "http://www.w3.org/Graphics/SVG/1.1/DTD/svg11.dtd">
<svg version="1.1" id="Layer_1" xmlns="http://www.w3.org/2000/svg" xmlns:xlink="http://www.w3.org/1999/xlink" x="0px" y="0px"
	 width="625.714px" height="137.492px" viewBox="0 0 625.714 137.492" enable-background="new 0 0 625.714 137.492"
	 xml:space="preserve">
<g>
	<defs>
		<path id="SVGID_1_" d="M64.009,1.967c-3.144,0-4.394,2.241-2.776,4.93L79.442,37.23c0.102,0.157,0.268,0.29,0.358,0.435
			l3.162,5.264l29.346,47.588l15.077-25.099c1.615-2.698,1.615-7.117,0-9.807L98.131,6.897c-1.613-2.689-5.51-4.93-8.638-4.93
			H64.009z"/>
	</defs>
	<clipPath id="SVGID_2_">
		<use xlink:href="#SVGID_1_"  overflow="visible"/>
	</clipPath>
	
		<radialGradient id="SVGID_3_" cx="-645.0801" cy="605.9683" r="0.9995" gradientTransform="matrix(39.4888 0 0 -39.4888 25568.0391 23975.1914)" gradientUnits="userSpaceOnUse">
		<stop  offset="0" style="stop-color:#00A95D"/>
		<stop  offset="1" style="stop-color:#009148"/>
	</radialGradient>
	<rect x="59.615" y="1.967" clip-path="url(#SVGID_2_)" fill="url(#SVGID_3_)" width="69.385" height="88.55"/>
</g>
<g>
	<defs>
		<path id="SVGID_4_" d="M61.04,114.125c-1.136,2.431,0.046,3.843,2.969,3.843h25.483c3.127,0,7.024-1.676,8.637-4.376
			l11.154-18.038l3.025-5.159l-19.46-31.68L61.04,114.125z"/>
	</defs>
	<clipPath id="SVGID_5_">
		<use xlink:href="#SVGID_4_"  overflow="visible"/>
	</clipPath>
	
		<radialGradient id="SVGID_6_" cx="-645.0801" cy="605.9673" r="0.9996" gradientTransform="matrix(27.801 0 0 -27.801 18020.3125 16934.8145)" gradientUnits="userSpaceOnUse">
		<stop  offset="0" style="stop-color:#FFCD3E"/>
		<stop  offset="1" style="stop-color:#F6C320"/>
	</radialGradient>
	<rect x="59.904" y="58.714" clip-path="url(#SVGID_5_)" fill="url(#SVGID_6_)" width="52.404" height="59.253"/>
</g>
<g>
	<defs>
		<path id="SVGID_7_" d="M4.395,1.967c-3.144,0-4.395,2.241-2.776,4.93L19.828,37.23c0.102,0.157,0.268,0.29,0.358,0.435
			l3.162,5.264l29.346,47.588L67.77,65.418c1.616-2.698,1.616-7.117,0-9.807L38.517,6.897c-1.613-2.689-5.51-4.93-8.638-4.93H4.395z
			"/>
	</defs>
	<clipPath id="SVGID_8_">
		<use xlink:href="#SVGID_7_"  overflow="visible"/>
	</clipPath>
	
		<radialGradient id="SVGID_9_" cx="-645.0801" cy="605.9683" r="0.9995" gradientTransform="matrix(39.4888 0 0 -39.4888 25508.4141 23975.1914)" gradientUnits="userSpaceOnUse">
		<stop  offset="0" style="stop-color:#E14939"/>
		<stop  offset="1" style="stop-color:#CE3526"/>
	</radialGradient>
	<rect y="1.967" clip-path="url(#SVGID_8_)" fill="url(#SVGID_9_)" width="69.386" height="88.55"/>
</g>
<g>
	<defs>
		<path id="SVGID_10_" d="M1.426,114.125c-1.136,2.431,0.046,3.843,2.969,3.843h25.483c3.127,0,7.024-1.676,8.637-4.376
			l11.154-18.038l3.025-5.159l-19.46-31.68L1.426,114.125z"/>
	</defs>
	<clipPath id="SVGID_11_">
		<use xlink:href="#SVGID_10_"  overflow="visible"/>
	</clipPath>
	
		<radialGradient id="SVGID_12_" cx="-645.0801" cy="605.9673" r="1.0001" gradientTransform="matrix(27.801 0 0 -27.801 17960.6875 16934.8145)" gradientUnits="userSpaceOnUse">
		<stop  offset="0" style="stop-color:#3E83FF"/>
		<stop  offset="1" style="stop-color:#4280EC"/>
	</radialGradient>
	<rect x="0.29" y="58.714" clip-path="url(#SVGID_11_)" fill="url(#SVGID_12_)" width="52.404" height="59.253"/>
</g>
<g>
	<path fill-rule="evenodd" clip-rule="evenodd" fill="#757575" d="M298.855,32.162c-4.71,0-8.973-3.556-10.212-9.662l3.816-0.289
		l11.65-4.567c-0.347-1.106-0.991-3.173-3.469-4.76c-1.487-0.913-3.322-1.345-5.105-1.345c-5.107,0-11.353,3.653-11.353,11.105
		c0,3.606,1.537,7.739,5.056,10.144c2.528,1.778,5.007,1.875,6.593,1.875c1.487,0,3.172-0.193,4.809-0.914
		c0.545-0.24,1.091-0.577,1.635-0.866l2.628-2.403C303.218,31.298,301.383,32.162,298.855,32.162 M288.445,19.808
		c0-5.192,3.717-6.683,5.7-6.683c2.678,0,4.908,2.212,4.908,4.134c0,0.674-0.496,0.962-1.437,1.299l-9.023,3.798
		C288.543,21.49,288.445,20.625,288.445,19.808 M280.315,30.336V19.23c0-6.827,0.05-12.691,0.446-16.392
		c0.198-1.684,0.694-1.972,2.23-2.838h-7.087l-3.719,1.731h3.866c-0.049,2.211-0.247,5.289-0.297,7.74
		c-0.149,5-0.198,10.337-0.198,14.086v7.837c0,0.961-0.199,1.106-1.339,2.547h8.774l1.835-1.058
		c-0.842-0.095-1.685-0.143-2.528-0.239C280.661,32.5,280.315,32.211,280.315,30.336 M272.978,12.164h-10.212
		c-2.676,0-6.046,0.384-8.873,2.644c-2.131,1.779-3.172,4.23-3.172,6.442c0,3.749,2.974,7.548,8.228,7.548
		c0.496,0,1.041-0.048,1.587-0.096c-0.248,0.576-0.496,1.056-0.496,1.874c0,1.491,0.793,2.404,1.487,3.269
		c-2.23,0.144-6.394,0.385-9.467,2.211c-2.926,1.683-3.819,4.135-3.819,5.866c0,3.557,3.47,6.875,10.658,6.875
		c8.527,0,13.038-4.567,13.038-9.086c0-3.317-1.982-4.953-4.163-6.731l-1.785-1.347c-0.545-0.432-1.289-1.009-1.289-2.066
		s0.744-1.731,1.388-2.356c2.081-1.587,4.163-3.269,4.163-6.827c0-3.653-2.379-5.576-3.518-6.49h3.072L272.978,12.164z
		 M268.616,41.586c0,2.98-2.528,5.19-7.287,5.19c-5.305,0-8.725-2.451-8.725-5.863c0-3.415,3.173-4.568,4.263-4.952
		c2.082-0.674,4.76-0.77,5.206-0.77c0.495,0,0.743,0,1.139,0.048C266.981,37.836,268.616,39.133,268.616,41.586 M264.651,26.106
		c-0.795,0.768-2.133,1.346-3.372,1.346c-4.263,0-6.196-5.337-6.196-8.558c0-1.25,0.248-2.548,1.09-3.557
		c0.794-0.962,2.182-1.587,3.471-1.587c4.114,0,6.246,5.384,6.246,8.846C265.89,23.461,265.79,24.999,264.651,26.106
		 M236.741,11.539c-7.534,0-12.839,5.384-12.839,11.682c0,5.385,4.214,11.345,12.096,11.345c8.08,0,12.591-6.009,12.591-11.682
		C248.589,17.067,244.028,11.539,236.741,11.539 M242.194,30.673c-1.14,1.538-3.124,2.451-5.057,2.451
		c-5.997,0-8.426-7.836-8.426-12.595c0-2.067,0.348-4.183,2.28-5.866c1.19-1.009,2.825-1.634,4.461-1.634
		c6.147,0,8.23,8.076,8.23,12.307C243.682,27.211,243.383,29.134,242.194,30.673 M210.369,11.539
		c-7.535,0-12.839,5.384-12.839,11.682c0,5.385,4.213,11.345,12.096,11.345c8.08,0,12.59-6.009,12.59-11.682
		C222.216,17.067,217.656,11.539,210.369,11.539 M215.821,30.673c-1.139,1.538-3.122,2.451-5.055,2.451
		c-5.998,0-8.428-7.836-8.428-12.595c0-2.067,0.347-4.183,2.28-5.866c1.19-1.009,2.826-1.634,4.463-1.634
		c6.146,0,8.228,8.076,8.228,12.307C217.309,27.211,217.012,29.134,215.821,30.673 M182.574,25.317l7.017-0.361v7.257
		c-1.394,0.541-2.927,1.126-5.902,1.126c-10.13,0-16.451-7.978-16.451-16.45c0-7.887,5.53-13.296,12.874-13.296
		c5.482,0,8.364,2.749,9.945,4.236l-1.162,1.803l1.626-0.36l3.857-3.56c-1.022-0.677-2.649-1.849-6.134-2.796
		c-2.184-0.585-4.601-0.947-7.111-0.947c-11.85,0-18.775,8.114-18.775,16.857c0,7.167,4.88,16.316,17.706,16.316
		c2.556,0,4.973-0.361,7.669-0.767l6.645-1.486V27.39c0-0.45,0.047-1.758,0.093-2.164c0.093-0.36,0.14-0.451,0.466-0.721
		l1.208-1.126h-9.853L182.574,25.317z"/>
	<polygon fill="#757575" points="173.43,108.932 204.701,108.932 204.701,118.047 162.071,118.047 162.071,49.989 173.43,49.989 	
		"/>
	<path fill="#757575" d="M242.844,118.046c-0.406-1.276-0.741-2.524-1.006-3.739c-0.264-1.215-0.443-2.431-0.537-3.646
		c-1.559,2.369-3.607,4.355-6.147,5.96s-5.383,2.407-8.53,2.407c-5.267,0-9.31-1.355-12.13-4.066
		c-2.821-2.712-4.23-6.435-4.23-11.172c0-4.891,1.931-8.702,5.796-11.428c3.864-2.727,9.302-4.09,16.313-4.09h8.834v-4.441
		c0-2.647-0.779-4.721-2.336-6.217c-1.559-1.495-3.787-2.244-6.685-2.244c-2.587,0-4.644,0.624-6.17,1.87
		c-1.527,1.246-2.29,2.853-2.29,4.815h-10.938l-0.047-0.281c-0.218-3.988,1.566-7.526,5.352-10.61
		c3.786-3.086,8.718-4.628,14.794-4.628c5.89,0,10.642,1.496,14.257,4.488c3.614,2.991,5.422,7.291,5.422,12.9v22.483
		c0,2.088,0.14,4.09,0.421,6.006c0.28,1.916,0.732,3.795,1.355,5.633H242.844z M228.914,109.913c2.867,0,5.446-0.716,7.736-2.149
		c2.291-1.434,3.809-3.069,4.557-4.908v-7.479h-9.021c-3.303,0-5.889,0.818-7.759,2.454c-1.87,1.637-2.805,3.561-2.805,5.773
		c0,1.932,0.631,3.467,1.893,4.603C224.778,109.345,226.577,109.913,228.914,109.913"/>
	<path fill="#757575" d="M295.99,110.661c-1.589,2.682-3.599,4.744-6.03,6.194c-2.43,1.448-5.235,2.173-8.414,2.173
		c-5.422,0-9.66-1.729-12.714-5.188c-3.054-3.459-4.58-8.835-4.58-16.126V67.471h11.311v30.336c0,4.425,0.717,7.525,2.15,9.302
		c1.433,1.776,3.599,2.663,6.498,2.663c2.741,0,5.04-0.49,6.894-1.472c1.854-0.982,3.311-2.407,4.371-4.276V67.471h11.358v50.575
		h-9.909L295.99,110.661z"/>
	<path fill="#757575" d="M328.991,67.471l0.652,7.291c1.652-2.585,3.733-4.604,6.242-6.053c2.507-1.449,5.336-2.174,8.484-2.174
		c5.265,0,9.37,1.598,12.316,4.792c2.944,3.194,4.415,8.171,4.415,14.934v31.786h-11.356V86.355c0-3.801-0.787-6.504-2.36-8.11
		c-1.575-1.604-3.967-2.406-7.176-2.406c-2.212,0-4.192,0.49-5.938,1.472c-1.744,0.981-3.178,2.33-4.3,4.043v36.694h-11.357V67.471
		H328.991z"/>
	<path fill="#757575" d="M393.822,109.913c2.773,0,5.111-0.812,7.012-2.438c1.9-1.628,2.852-3.665,2.852-6.114h10.283l0.095,0.28
		c0.155,4.736-1.771,8.818-5.773,12.246c-4.005,3.429-8.827,5.142-14.468,5.142c-7.448,0-13.157-2.399-17.13-7.199
		c-3.974-4.798-5.961-10.875-5.961-18.229v-1.637c0-7.321,1.987-13.391,5.961-18.205c3.973-4.815,9.682-7.223,17.13-7.223
		c6.077,0,11.008,1.77,14.794,5.307c3.787,3.535,5.617,8.031,5.493,13.483l-0.093,0.281h-10.331c0-2.773-0.911-5.126-2.735-7.058
		c-1.822-1.933-4.198-2.898-7.128-2.898c-4.27,0-7.291,1.549-9.067,4.645c-1.776,3.097-2.665,6.979-2.665,11.646v1.634
		c0,4.762,0.889,8.674,2.665,11.74C386.531,108.38,389.553,109.913,393.822,109.913"/>
	<path fill="#757575" d="M434.396,74.015c1.684-2.368,3.732-4.207,6.147-5.517c2.414-1.308,5.087-1.963,8.017-1.963
		c5.359,0,9.542,1.691,12.55,5.072s4.511,8.593,4.511,15.635v30.804h-11.358V87.15c0-3.989-0.794-6.872-2.384-8.648
		c-1.589-1.775-3.975-2.664-7.151-2.664c-2.214,0-4.2,0.46-5.961,1.38c-1.76,0.919-3.218,2.188-4.37,3.81v37.02h-11.358V45.128
		h11.358V74.015z"/>
	<path fill="#757575" d="M521.71,94.441c0,7.354-1.729,13.291-5.188,17.81s-8.273,6.778-14.443,6.778
		c-2.868,0-5.407-0.515-7.619-1.543c-2.214-1.028-4.112-2.539-5.702-4.534v24.54h-11.359V67.47h9.583l1.122,6.357
		c1.62-2.368,3.576-4.175,5.866-5.422c2.29-1.245,4.946-1.87,7.97-1.87c6.232,0,11.085,2.47,14.559,7.409
		c3.476,4.939,5.212,11.444,5.212,19.516V94.441z M510.399,93.435c0-5.165-0.974-9.389-2.922-12.673
		c-1.948-3.283-4.854-4.924-8.717-4.924c-2.369,0-4.378,0.506-6.03,1.516c-1.652,1.013-2.977,2.42-3.973,4.225v22.826
		c0.996,1.773,2.32,3.136,3.973,4.085s3.693,1.423,6.123,1.423c3.864,0,6.755-1.423,8.671-4.271
		c1.917-2.847,2.875-6.59,2.875-11.226V93.435z"/>
	<path fill="#757575" d="M562.051,118.046c-0.406-1.276-0.74-2.524-1.005-3.739c-0.266-1.215-0.444-2.431-0.538-3.646
		c-1.559,2.369-3.607,4.355-6.146,5.96c-2.541,1.604-5.384,2.407-8.53,2.407c-5.267,0-9.311-1.355-12.13-4.066
		c-2.82-2.712-4.23-6.435-4.23-11.172c0-4.891,1.932-8.702,5.797-11.428c3.863-2.727,9.302-4.09,16.312-4.09h8.835v-4.441
		c0-2.647-0.779-4.721-2.337-6.217c-1.56-1.495-3.787-2.244-6.685-2.244c-2.587,0-4.644,0.624-6.17,1.87
		c-1.527,1.246-2.29,2.853-2.29,4.815h-10.938l-0.048-0.281c-0.219-3.988,1.565-7.526,5.353-10.61
		c3.786-3.086,8.717-4.628,14.794-4.628c5.889,0,10.641,1.496,14.256,4.488c3.615,2.991,5.423,7.291,5.423,12.9v22.483
		c0,2.088,0.141,4.09,0.421,6.006s0.731,3.795,1.355,5.633H562.051z M548.122,109.913c2.865,0,5.444-0.716,7.734-2.149
		c2.291-1.434,3.811-3.069,4.559-4.908v-7.479h-9.021c-3.303,0-5.89,0.818-7.76,2.454c-1.87,1.637-2.804,3.561-2.804,5.773
		c0,1.932,0.63,3.467,1.893,4.603C543.984,109.345,545.785,109.913,548.122,109.913"/>
	<path fill="#757575" d="M581.589,93.459c0-8.07,1.729-14.574,5.188-19.516c3.459-4.938,8.32-7.408,14.584-7.408
		c2.742,0,5.195,0.554,7.361,1.659c2.166,1.107,4.044,2.688,5.633,4.745V45.128h11.358v72.918h-9.535l-1.122-6.264
		c-1.62,2.369-3.568,4.169-5.843,5.399c-2.275,1.23-4.924,1.847-7.946,1.847c-6.201,0-11.031-2.259-14.49-6.779
		c-3.459-4.517-5.188-10.454-5.188-17.808V93.459z M592.948,94.442c0,4.673,0.895,8.397,2.687,11.171
		c1.792,2.774,4.636,4.16,8.531,4.16c2.398,0,4.433-0.515,6.1-1.542c1.666-1.029,3.031-2.493,4.09-4.395V81.774
		c-1.059-1.869-2.431-3.326-4.113-4.37c-1.684-1.044-3.678-1.566-5.982-1.566c-3.865,0-6.716,1.628-8.555,4.886
		c-1.839,3.256-2.757,7.502-2.757,12.736V94.442z"/>
	<path fill="#767676" d="M321.864,34.809V4.168h9.407c4.012,0,7.232,1.231,9.659,3.693c2.427,2.463,3.64,5.644,3.64,9.544v4.188
		c0,3.913-1.213,7.095-3.64,9.543c-2.427,2.448-5.647,3.672-9.659,3.672H321.864z M326.011,7.431v24.116h5.261
		c2.833,0,5.068-0.932,6.702-2.796c1.634-1.864,2.451-4.254,2.451-7.17v-4.226c0-2.888-0.817-5.263-2.451-7.128
		c-1.634-1.864-3.869-2.796-6.702-2.796H326.011z"/>
	<path fill="#767676" d="M358.923,35.251c-3.171,0-5.691-1.056-7.564-3.168c-1.874-2.111-2.81-4.85-2.81-8.217V22.94
		c0-3.241,0.964-5.938,2.894-8.092c1.929-2.153,4.212-3.23,6.85-3.23c3.072,0,5.395,0.926,6.965,2.778
		c1.572,1.852,2.357,4.321,2.357,7.407v2.589h-14.773l-0.062,0.105c0.042,2.182,0.596,3.977,1.663,5.383
		c1.064,1.406,2.56,2.109,4.481,2.109c1.402,0,2.634-0.2,3.693-0.6c1.059-0.4,1.975-0.95,2.746-1.652l1.621,2.697
		c-0.814,0.804-1.889,1.475-3.221,2.012C362.43,34.982,360.817,35.251,358.923,35.251 M358.292,14.88
		c-1.389,0-2.575,0.584-3.556,1.751c-0.983,1.168-1.587,2.632-1.811,4.394l0.041,0.105h10.502v-0.545
		c0-1.622-0.435-2.979-1.305-4.069C361.293,15.425,360.003,14.88,358.292,14.88"/>
	<polygon fill="#767676" points="379.589,28.095 379.946,29.694 380.071,29.694 380.472,28.095 385.713,12.039 389.942,12.039 
		381.566,34.809 378.432,34.809 369.949,12.039 374.201,12.039 	"/>
	<path fill="#767676" d="M402.842,35.251c-3.171,0-5.691-1.056-7.564-3.168c-1.874-2.111-2.809-4.85-2.809-8.217V22.94
		c0-3.241,0.964-5.938,2.893-8.092c1.929-2.153,4.212-3.23,6.85-3.23c3.072,0,5.395,0.926,6.965,2.778
		c1.572,1.852,2.357,4.321,2.357,7.407v2.589H396.76l-0.062,0.105c0.042,2.182,0.596,3.977,1.663,5.383
		c1.065,1.406,2.56,2.109,4.481,2.109c1.402,0,2.635-0.2,3.693-0.6c1.059-0.4,1.975-0.95,2.746-1.652l1.621,2.697
		c-0.814,0.804-1.888,1.475-3.22,2.012C406.35,34.982,404.736,35.251,402.842,35.251 M402.211,14.88
		c-1.389,0-2.574,0.584-3.556,1.751c-0.983,1.168-1.587,2.632-1.81,4.394l0.041,0.105h10.502v-0.545
		c0-1.622-0.436-2.979-1.307-4.069C405.212,15.425,403.922,14.88,402.211,14.88"/>
	<rect x="416.519" y="1.979" fill="#767676" width="4.146" height="32.829"/>
	<path fill="#767676" d="M426.074,23.213c0-3.367,0.912-6.141,2.736-8.323c1.824-2.181,4.3-3.272,7.429-3.272
		c3.156,0,5.65,1.087,7.481,3.262c1.83,2.175,2.744,4.952,2.744,8.333v0.463c0,3.395-0.91,6.173-2.734,8.333
		c-1.824,2.161-4.308,3.241-7.449,3.241c-3.143,0-5.63-1.084-7.461-3.251c-1.83-2.168-2.746-4.942-2.746-8.323V23.213z
		 M430.221,23.666c0,2.41,0.509,4.4,1.525,5.969c1.018,1.57,2.528,2.354,4.535,2.354c1.979,0,3.479-0.784,4.503-2.354
		c1.024-1.569,1.536-3.559,1.536-5.969v-0.462c0-2.382-0.516-4.365-1.546-5.949c-1.031-1.583-2.543-2.374-4.535-2.374
		c-1.978,0-3.476,0.791-4.493,2.374c-1.017,1.584-1.525,3.567-1.525,5.949V23.666z"/>
	<path fill="#767676" d="M470.94,24.287c0,3.283-0.786,5.931-2.357,7.944c-1.571,2.014-3.739,3.02-6.503,3.02
		c-1.402,0-2.633-0.235-3.693-0.705c-1.059-0.47-1.961-1.175-2.703-2.115v11.132h-4.146V12.039h3.177l0.653,2.947
		c0.743-1.095,1.669-1.929,2.777-2.505c1.107-0.575,2.398-0.862,3.872-0.862c2.819,0,5.012,1.119,6.576,3.356
		c1.564,2.238,2.347,5.194,2.347,8.87V24.287z M466.794,23.833c0-2.578-0.509-4.697-1.524-6.358c-1.019-1.66-2.516-2.49-4.493-2.49
		c-1.193,0-2.21,0.27-3.051,0.809c-0.843,0.539-1.523,1.279-2.042,2.217v10.992c0.519,0.939,1.199,1.672,2.042,2.197
		c0.841,0.526,1.872,0.788,3.092,0.788c1.964,0,3.452-0.718,4.462-2.154c1.01-1.437,1.515-3.289,1.515-5.559V23.833z"/>
	<path fill="#767676" d="M485.481,35.251c-3.171,0-5.692-1.056-7.565-3.168c-1.873-2.111-2.809-4.85-2.809-8.217V22.94
		c0-3.241,0.964-5.938,2.893-8.092c1.93-2.153,4.213-3.23,6.851-3.23c3.072,0,5.394,0.926,6.966,2.778
		c1.571,1.852,2.356,4.321,2.356,7.407v2.589h-14.773l-0.062,0.105c0.042,2.182,0.596,3.977,1.663,5.383
		c1.064,1.406,2.56,2.109,4.481,2.109c1.402,0,2.634-0.2,3.693-0.6c1.059-0.4,1.975-0.95,2.746-1.652l1.62,2.697
		c-0.813,0.804-1.888,1.475-3.22,2.012C488.988,34.982,487.375,35.251,485.481,35.251 M484.851,14.88
		c-1.389,0-2.575,0.584-3.556,1.751c-0.983,1.168-1.588,2.632-1.811,4.394l0.041,0.105h10.502v-0.545
		c0-1.622-0.435-2.979-1.305-4.069C487.852,15.425,486.562,14.88,484.851,14.88"/>
	<path fill="#767676" d="M509.599,15.701l-2.125-0.126c-1.095,0-2.018,0.259-2.769,0.778c-0.75,0.519-1.328,1.249-1.735,2.189
		v16.267h-4.146v-22.77h3.704l0.4,3.325c0.645-1.178,1.441-2.097,2.389-2.757c0.946-0.659,2.037-0.989,3.272-0.989
		c0.308,0,0.603,0.025,0.883,0.074s0.513,0.102,0.694,0.158L509.599,15.701z"/>
	<path fill="#767676" d="M526.834,28.748c0-0.912-0.347-1.663-1.042-2.252c-0.694-0.589-2.01-1.101-3.945-1.536
		c-2.765-0.602-4.845-1.418-6.241-2.448c-1.396-1.029-2.094-2.434-2.094-4.212c0-1.849,0.786-3.425,2.358-4.728
		c1.569-1.303,3.619-1.954,6.145-1.954c2.651,0,4.759,0.681,6.323,2.041c1.565,1.361,2.311,3.017,2.242,4.967l-0.043,0.126h-3.956
		c0-0.996-0.418-1.89-1.252-2.683c-0.835-0.793-1.939-1.189-3.314-1.189c-1.474,0-2.566,0.323-3.284,0.968
		c-0.715,0.645-1.071,1.424-1.071,2.336c0,0.898,0.314,1.606,0.946,2.125s1.914,0.983,3.851,1.389
		c2.876,0.618,5.016,1.456,6.419,2.515c1.402,1.059,2.105,2.479,2.105,4.262c0,2.019-0.818,3.654-2.452,4.902
		c-1.636,1.249-3.771,1.874-6.408,1.874c-2.904,0-5.191-0.737-6.86-2.21c-1.67-1.473-2.463-3.192-2.379-5.156l0.042-0.126h3.956
		c0.071,1.466,0.618,2.538,1.642,3.214c1.024,0.677,2.225,1.016,3.6,1.016c1.473,0,2.626-0.298,3.461-0.895
		C526.416,30.498,526.834,29.716,526.834,28.748"/>
</g>
</svg>
