<?xml version="1.0" encoding="utf-8"?>
<!-- Generator: Adobe Illustrator 16.2.1, SVG Export Plug-In . SVG Version: 6.00 Build 0)  -->
<!DOCTYPE svg PUBLIC "-//W3C//DTD SVG 1.1//EN" "http://www.w3.org/Graphics/SVG/1.1/DTD/svg11.dtd">
<svg version="1.1" id="Layer_1" xmlns="http://www.w3.org/2000/svg" xmlns:xlink="http://www.w3.org/1999/xlink" x="0px" y="0px"
	 width="86px" height="88px" viewBox="0 0 86 88" enable-background="new 0 0 86 88" xml:space="preserve">
<path fill-rule="evenodd" clip-rule="evenodd" fill="#DD4B38" d="M6,0h74c3.313,0,6,2.686,6,6v76c0,3.313-2.687,6-6,6H6
	c-3.313,0-6-2.687-6-6V6C0,2.686,2.687,0,6,0z"/>
<g>
	<g>
		<path fill="#FFFFFF" d="M49.844,15H34.678c-2.013,0-4.169,0.235-6.47,0.706c-2.324,0.545-4.564,1.709-6.72,3.493
			c-3.139,3.047-4.708,6.44-4.708,10.18c0,3.097,1.107,5.809,3.323,8.137c2.117,2.502,5.194,3.777,9.231,3.827
			c0.763,0,1.575-0.049,2.437-0.148c-0.143,0.398-0.297,0.833-0.464,1.307c-0.19,0.448-0.285,1.009-0.285,1.681
			c0,1.122,0.249,2.081,0.749,2.878c0.427,0.822,0.915,1.594,1.461,2.316c-1.77,0.05-3.993,0.271-6.67,0.668
			c-2.703,0.47-5.283,1.409-7.74,2.818c-2.187,1.31-3.698,2.831-4.533,4.562C13.43,59.154,13,60.724,13,62.134
			c0,2.893,1.323,5.377,3.966,7.455c2.62,2.225,6.586,3.362,11.897,3.412c6.346-0.1,11.201-1.623,14.566-4.57
			c3.245-2.85,4.867-6.119,4.867-9.811c-0.046-2.601-0.637-4.707-1.772-6.317c-1.206-1.585-2.608-3.033-4.207-4.347l-2.572-2.118
			c-0.371-0.372-0.754-0.805-1.147-1.301c-0.463-0.521-0.695-1.176-0.695-1.969c0-0.817,0.226-1.536,0.678-2.155
			c0.384-0.595,0.801-1.127,1.253-1.598c0.791-0.693,1.536-1.375,2.236-2.044c0.633-0.669,1.231-1.399,1.796-2.192
			c1.152-1.635,1.751-3.814,1.797-6.54c0-1.486-0.167-2.787-0.5-3.902c-0.405-1.115-0.869-2.081-1.394-2.898
			c-0.547-0.867-1.107-1.598-1.678-2.193c-0.596-0.569-1.131-1.003-1.607-1.3h4.676L49.844,15z M41.53,56.544
			c1.256,1.437,1.884,3.122,1.884,5.055c0,2.378-0.918,4.323-2.753,5.835c-1.883,1.536-4.612,2.329-8.186,2.379
			c-3.984-0.05-7.124-0.942-9.417-2.676c-2.415-1.735-3.622-3.94-3.622-6.616c0-1.363,0.278-2.527,0.833-3.493
			c0.483-0.917,1.075-1.686,1.775-2.305c0.725-0.595,1.437-1.053,2.137-1.375c0.7-0.298,1.243-0.521,1.63-0.669
			c1.642-0.496,3.247-0.855,4.817-1.078c1.594-0.148,2.584-0.198,2.971-0.148c0.652,0,1.219,0.024,1.702,0.074
			C38.126,53.509,40.202,55.181,41.53,56.544z M39.069,34.129c-0.183,1.018-0.596,2.011-1.238,2.979
			c-1.331,1.366-2.995,2.086-4.991,2.16c-1.581,0-2.985-0.483-4.214-1.452c-1.229-0.968-2.232-2.147-3.009-3.537
			c-1.606-2.979-2.408-5.846-2.408-8.602c-0.05-2.084,0.5-3.971,1.649-5.659c1.362-1.613,3.071-2.445,5.126-2.495
			c1.554,0.05,2.928,0.509,4.123,1.378c1.171,0.918,2.115,2.11,2.832,3.574c1.529,3.054,2.294,6.082,2.294,9.085
			C39.234,32.255,39.179,33.112,39.069,34.129z M65,39v-8h-4v8h-8v4h8v8h4v-8h8v-4H65z"/>
	</g>
</g>
</svg>
