<?xml version="1.0" encoding="utf-8"?>
<!-- Generator: Adobe Illustrator 16.2.1, SVG Export Plug-In . SVG Version: 6.00 Build 0)  -->
<!DOCTYPE svg PUBLIC "-//W3C//DTD SVG 1.1//EN" "http://www.w3.org/Graphics/SVG/1.1/DTD/svg11.dtd">
<svg version="1.1" id="Layer_1" xmlns="http://www.w3.org/2000/svg" xmlns:xlink="http://www.w3.org/1999/xlink" x="0px" y="0px"
	 width="374.49px" height="82.409px" viewBox="0 0 374.49 82.409" enable-background="new 0 0 374.49 82.409" xml:space="preserve">
<g>
	<defs>
		<rect id="SVGID_1_" y="0" width="374.49" height="82.409"/>
	</defs>
	<clipPath id="SVGID_2_">
		<use xlink:href="#SVGID_1_"  overflow="visible"/>
	</clipPath>
	<path clip-path="url(#SVGID_2_)" fill="#FFFFFF" d="M75.805,39.21l-9.037,15.044L49.179,25.73l-1.895-3.155
		c-0.054-0.087-0.153-0.166-0.214-0.26L36.155,4.028c-0.97-1.611-0.22-3.061,1.664-3.061h15.275c1.874,0,4.21,1.45,5.177,3.061
		l17.534,29.25C76.773,34.891,76.773,37.592,75.805,39.21"/>
	<path clip-path="url(#SVGID_2_)" fill="#FFFFFF" d="M64.956,57.272l-6.685,10.941c-0.967,1.618-3.303,2.755-5.177,2.755H37.819
		c-1.752,0-2.46-0.978-1.779-2.435l19.065-33.277l11.663,18.956L64.956,57.272z"/>
	<path clip-path="url(#SVGID_2_)" fill="#FFFFFF" d="M40.074,39.21l-9.037,15.044L13.448,25.73l-1.895-3.155
		c-0.054-0.087-0.153-0.166-0.214-0.26L0.424,4.028c-0.97-1.611-0.22-3.061,1.664-3.061h15.275c1.874,0,4.21,1.45,5.177,3.061
		l17.534,29.25C41.042,34.891,41.042,37.592,40.074,39.21"/>
	<path clip-path="url(#SVGID_2_)" fill="#FFFFFF" d="M29.225,57.272L22.54,68.213c-0.967,1.618-3.303,2.755-5.177,2.755H2.088
		c-1.752,0-2.46-0.978-1.779-2.435l19.065-33.277l11.663,18.956L29.225,57.272z"/>
	<path clip-path="url(#SVGID_2_)" fill-rule="evenodd" clip-rule="evenodd" fill="#FFFFFF" d="M178.579,19.277
		c-2.822,0-5.378-2.132-6.12-5.791l2.287-0.174l6.982-2.737c-0.208-0.663-0.594-1.902-2.079-2.853
		c-0.891-0.547-1.991-0.806-3.06-0.806c-3.06,0-6.804,2.19-6.804,6.655c0,2.162,0.921,4.64,3.03,6.081
		c1.515,1.065,3.001,1.123,3.952,1.123c0.891,0,1.901-0.115,2.882-0.547c0.327-0.144,0.654-0.346,0.98-0.519l1.575-1.441
		C181.194,18.759,180.094,19.277,178.579,19.277 M172.34,11.873c0-3.112,2.228-4.006,3.417-4.006c1.604,0,2.941,1.326,2.941,2.478
		c0,0.404-0.298,0.577-0.861,0.779l-5.408,2.276C172.399,12.88,172.34,12.361,172.34,11.873 M167.467,18.183v-6.656
		c0-4.092,0.03-7.607,0.268-9.826c0.118-1.008,0.415-1.181,1.336-1.7h-4.248l-2.229,1.037h2.318c-0.03,1.325-0.149,3.17-0.179,4.639
		c-0.089,2.997-0.118,6.196-0.118,8.443v4.697c0,0.576-0.119,0.663-0.803,1.527h5.259l1.1-0.634
		c-0.505-0.057-1.01-0.086-1.515-0.143C167.675,19.479,167.467,19.306,167.467,18.183 M163.069,7.291h-6.12
		c-1.604,0-3.624,0.231-5.318,1.585c-1.278,1.066-1.902,2.536-1.902,3.861c0,2.248,1.783,4.524,4.932,4.524
		c0.297,0,0.624-0.029,0.951-0.057c-0.149,0.345-0.297,0.633-0.297,1.123c0,0.893,0.475,1.441,0.891,1.96
		c-1.337,0.086-3.833,0.23-5.674,1.325c-1.754,1.008-2.289,2.478-2.289,3.515c0,2.133,2.08,4.121,6.388,4.121
		c5.111,0,7.815-2.737,7.815-5.446c0-1.988-1.188-2.968-2.496-4.034l-1.07-0.807c-0.326-0.259-0.772-0.605-0.772-1.239
		c0-0.633,0.446-1.037,0.832-1.412c1.247-0.951,2.495-1.959,2.495-4.092c0-2.189-1.426-3.342-2.109-3.89h1.842L163.069,7.291z
		 M160.455,24.925c0,1.786-1.515,3.111-4.368,3.111c-3.179,0-5.229-1.469-5.229-3.515s1.901-2.737,2.555-2.968
		c1.248-0.403,2.853-0.461,3.12-0.461c0.297,0,0.445,0,0.683,0.029C159.475,22.677,160.455,23.456,160.455,24.925 M158.079,15.647
		c-0.477,0.46-1.279,0.806-2.022,0.806c-2.555,0-3.714-3.198-3.714-5.129c0-0.749,0.149-1.527,0.654-2.132
		c0.476-0.577,1.308-0.951,2.08-0.951c2.466,0,3.744,3.227,3.744,5.302C158.821,14.062,158.761,14.984,158.079,15.647 M141.35,6.917
		c-4.516,0-7.695,3.227-7.695,7.002c0,3.227,2.525,6.799,7.249,6.799c4.844,0,7.547-3.601,7.547-7.001
		C148.451,10.229,145.718,6.917,141.35,6.917 M144.619,18.384c-0.684,0.922-1.873,1.469-3.032,1.469c-3.594,0-5.05-4.696-5.05-7.549
		c0-1.239,0.208-2.507,1.367-3.516c0.713-0.605,1.693-0.979,2.673-0.979c3.685,0,4.933,4.841,4.933,7.376
		C145.51,16.31,145.331,17.462,144.619,18.384 M125.544,6.917c-4.517,0-7.696,3.227-7.696,7.002c0,3.227,2.526,6.799,7.25,6.799
		c4.843,0,7.546-3.601,7.546-7.001C132.644,10.229,129.911,6.917,125.544,6.917 M128.811,18.384
		c-0.683,0.922-1.871,1.469-3.03,1.469c-3.595,0-5.051-4.696-5.051-7.549c0-1.239,0.208-2.507,1.367-3.516
		c0.713-0.605,1.693-0.979,2.674-0.979c3.684,0,4.932,4.841,4.932,7.376C129.703,16.31,129.525,17.462,128.811,18.384
		 M108.884,15.174l4.206-0.216v4.349c-0.836,0.324-1.755,0.675-3.538,0.675c-6.072,0-9.86-4.781-9.86-9.86
		c0-4.727,3.314-7.969,7.716-7.969c3.286,0,5.014,1.648,5.961,2.539l-0.697,1.081l0.975-0.216l2.312-2.134
		c-0.613-0.406-1.588-1.108-3.677-1.675c-1.309-0.351-2.757-0.568-4.262-0.568c-7.103,0-11.253,4.863-11.253,10.103
		c0,4.296,2.925,9.78,10.613,9.78c1.532,0,2.98-0.216,4.596-0.46l3.983-0.891v-3.296c0-0.27,0.028-1.053,0.056-1.296
		c0.055-0.217,0.083-0.271,0.279-0.432l0.724-0.676h-5.906L108.884,15.174z"/>
	<polygon clip-path="url(#SVGID_2_)" fill="#FFFFFF" points="103.403,65.291 122.146,65.291 122.146,70.753 96.596,70.753 
		96.596,29.962 103.403,29.962 	"/>
	<path clip-path="url(#SVGID_2_)" fill="#FFFFFF" d="M145.008,70.753c-0.243-0.765-0.444-1.513-0.602-2.241
		c-0.159-0.729-0.266-1.456-0.323-2.185c-0.934,1.419-2.162,2.61-3.684,3.571c-1.522,0.962-3.226,1.443-5.113,1.443
		c-3.156,0-5.58-0.812-7.27-2.438c-1.691-1.625-2.535-3.857-2.535-6.696c0-2.932,1.157-5.215,3.474-6.85
		c2.315-1.634,5.575-2.451,9.777-2.451h5.295v-2.662c0-1.587-0.467-2.829-1.4-3.726c-0.935-0.896-2.27-1.346-4.007-1.346
		c-1.55,0-2.783,0.374-3.698,1.121s-1.373,1.709-1.373,2.886h-6.556l-0.027-0.169c-0.132-2.39,0.938-4.51,3.207-6.358
		c2.27-1.85,5.225-2.774,8.867-2.774c3.531,0,6.379,0.897,8.546,2.69c2.166,1.793,3.249,4.37,3.249,7.731v13.477
		c0,1.252,0.084,2.451,0.252,3.6c0.169,1.149,0.439,2.274,0.813,3.376H145.008z M136.659,65.878c1.718,0,3.264-0.429,4.637-1.289
		c1.373-0.857,2.283-1.839,2.731-2.94v-4.483h-5.407c-1.98,0-3.53,0.491-4.65,1.471c-1.121,0.981-1.681,2.135-1.681,3.461
		c0,1.157,0.378,2.077,1.134,2.76C134.18,65.539,135.258,65.878,136.659,65.878"/>
	<path clip-path="url(#SVGID_2_)" fill="#FFFFFF" d="M176.862,66.328c-0.953,1.606-2.157,2.843-3.614,3.712
		c-1.457,0.868-3.138,1.303-5.043,1.303c-3.25,0-5.79-1.037-7.621-3.11c-1.83-2.072-2.745-5.295-2.745-9.665V40.44h6.78v18.183
		c0,2.651,0.429,4.51,1.289,5.574c0.858,1.064,2.157,1.597,3.894,1.597c1.643,0,3.021-0.294,4.132-0.882
		c1.111-0.589,1.984-1.443,2.62-2.563V40.44h6.808v30.314h-5.94L176.862,66.328z"/>
	<path clip-path="url(#SVGID_2_)" fill="#FFFFFF" d="M196.643,40.44l0.392,4.37c0.989-1.549,2.237-2.759,3.741-3.628
		c1.502-0.868,3.197-1.303,5.085-1.303c3.154,0,5.616,0.958,7.382,2.872c1.765,1.915,2.646,4.898,2.646,8.951v19.052h-6.808V51.759
		c0-2.279-0.471-3.899-1.414-4.861c-0.944-0.962-2.378-1.442-4.301-1.442c-1.326,0-2.513,0.294-3.56,0.882
		c-1.045,0.589-1.904,1.396-2.576,2.424v21.993h-6.809V40.44H196.643z"/>
	<path clip-path="url(#SVGID_2_)" fill="#FFFFFF" d="M235.5,65.878c1.662,0,3.063-0.486,4.203-1.462
		c1.139-0.976,1.708-2.197,1.708-3.665h6.164l0.057,0.168c0.094,2.84-1.061,5.286-3.46,7.34c-2.4,2.057-5.291,3.083-8.672,3.083
		c-4.464,0-7.886-1.438-10.268-4.314c-2.381-2.876-3.572-6.52-3.572-10.926v-0.981c0-4.389,1.191-8.026,3.572-10.912
		c2.382-2.886,5.804-4.329,10.268-4.329c3.643,0,6.599,1.06,8.867,3.18c2.27,2.12,3.367,4.814,3.292,8.083l-0.056,0.168h-6.192
		c0-1.662-0.546-3.072-1.638-4.231c-1.093-1.158-2.518-1.737-4.273-1.737c-2.559,0-4.37,0.93-5.435,2.784
		c-1.064,1.856-1.598,4.184-1.598,6.981v0.979c0,2.854,0.533,5.199,1.598,7.037C231.13,64.96,232.941,65.878,235.5,65.878"/>
	<path clip-path="url(#SVGID_2_)" fill="#FFFFFF" d="M259.818,44.363c1.01-1.419,2.237-2.521,3.685-3.306
		c1.447-0.784,3.049-1.177,4.805-1.177c3.212,0,5.72,1.014,7.523,3.04c1.802,2.027,2.703,5.151,2.703,9.371v18.463h-6.809V52.236
		c0-2.392-0.476-4.119-1.429-5.185c-0.952-1.063-2.381-1.596-4.286-1.596c-1.327,0-2.517,0.276-3.572,0.826
		c-1.056,0.551-1.929,1.312-2.62,2.284v22.188h-6.808V27.048h6.808V44.363z"/>
	<path clip-path="url(#SVGID_2_)" fill="#FFFFFF" d="M312.153,56.606c0,4.407-1.037,7.966-3.11,10.674
		c-2.073,2.709-4.959,4.062-8.657,4.062c-1.719,0-3.24-0.308-4.565-0.925c-1.327-0.616-2.466-1.521-3.419-2.718v14.709h-6.809V40.44
		h5.744l0.672,3.81c0.972-1.42,2.145-2.503,3.517-3.25c1.373-0.747,2.965-1.121,4.776-1.121c3.735,0,6.645,1.481,8.728,4.44
		c2.083,2.962,3.124,6.859,3.124,11.698V56.606z M305.373,56.002c0-3.096-0.584-5.628-1.751-7.596
		c-1.168-1.967-2.91-2.951-5.225-2.951c-1.42,0-2.624,0.303-3.614,0.908c-0.99,0.606-1.784,1.451-2.382,2.532v13.682
		c0.598,1.062,1.392,1.879,2.382,2.448c0.99,0.568,2.213,0.853,3.67,0.853c2.316,0,4.048-0.853,5.197-2.56
		c1.148-1.706,1.723-3.949,1.723-6.729V56.002z"/>
	<path clip-path="url(#SVGID_2_)" fill="#FFFFFF" d="M336.332,70.753c-0.244-0.765-0.444-1.513-0.604-2.241
		s-0.266-1.456-0.321-2.185c-0.935,1.419-2.162,2.61-3.685,3.571c-1.522,0.962-3.227,1.443-5.113,1.443
		c-3.155,0-5.58-0.812-7.27-2.438c-1.691-1.625-2.536-3.857-2.536-6.696c0-2.932,1.158-5.215,3.475-6.85
		c2.315-1.634,5.575-2.451,9.777-2.451h5.295v-2.662c0-1.587-0.467-2.829-1.4-3.726c-0.935-0.896-2.27-1.346-4.007-1.346
		c-1.551,0-2.782,0.374-3.697,1.121s-1.373,1.709-1.373,2.886h-6.557l-0.027-0.169c-0.131-2.39,0.938-4.51,3.208-6.358
		c2.269-1.85,5.225-2.774,8.866-2.774c3.53,0,6.379,0.897,8.546,2.69s3.25,4.37,3.25,7.731v13.477c0,1.252,0.084,2.451,0.252,3.6
		c0.169,1.149,0.438,2.274,0.812,3.376H336.332z M327.982,65.878c1.719,0,3.265-0.429,4.637-1.289
		c1.373-0.857,2.283-1.839,2.731-2.94v-4.483h-5.407c-1.979,0-3.529,0.491-4.65,1.471c-1.121,0.981-1.682,2.135-1.682,3.461
		c0,1.157,0.379,2.077,1.136,2.76C325.503,65.539,326.582,65.878,327.982,65.878"/>
	<path clip-path="url(#SVGID_2_)" fill="#FFFFFF" d="M348.042,56.018c0-4.838,1.036-8.737,3.11-11.698
		c2.073-2.96,4.987-4.44,8.741-4.44c1.643,0,3.113,0.332,4.412,0.994c1.298,0.664,2.424,1.612,3.376,2.844v-16.67h6.808v43.706
		h-5.715L368.103,67c-0.973,1.42-2.14,2.498-3.502,3.236c-1.364,0.737-2.952,1.105-4.764,1.105c-3.717,0-6.611-1.353-8.685-4.062
		c-2.074-2.708-3.11-6.266-3.11-10.674V56.018z M354.851,56.606c0,2.801,0.537,5.033,1.61,6.696
		c1.074,1.661,2.778,2.492,5.113,2.492c1.438,0,2.656-0.308,3.656-0.924c0.999-0.617,1.815-1.495,2.451-2.634V49.013
		c-0.636-1.12-1.457-1.993-2.465-2.619c-1.01-0.626-2.204-0.939-3.587-0.939c-2.315,0-4.024,0.977-5.128,2.928
		c-1.102,1.952-1.651,4.497-1.651,7.636V56.606z"/>
	<path clip-path="url(#SVGID_2_)" fill="#FFFFFF" d="M192.371,20.864V2.499h5.639c2.403,0,4.334,0.738,5.789,2.213
		c1.454,1.476,2.181,3.383,2.181,5.721v2.51c0,2.346-0.727,4.252-2.181,5.72c-1.455,1.467-3.386,2.201-5.789,2.201H192.371z
		 M194.855,4.454v14.455h3.154c1.697,0,3.037-0.559,4.017-1.676c0.979-1.118,1.47-2.55,1.47-4.298v-2.533
		c0-1.731-0.491-3.155-1.47-4.272c-0.979-1.117-2.319-1.676-4.017-1.676H194.855z"/>
	<path clip-path="url(#SVGID_2_)" fill="#FFFFFF" d="M214.582,21.129c-1.899,0-3.41-0.633-4.533-1.899
		c-1.123-1.265-1.685-2.907-1.685-4.925V13.75c0-1.942,0.578-3.559,1.735-4.85c1.156-1.291,2.523-1.936,4.104-1.936
		c1.841,0,3.233,0.555,4.175,1.665c0.942,1.11,1.412,2.59,1.412,4.44v1.551h-8.854l-0.038,0.063
		c0.025,1.308,0.357,2.384,0.997,3.226c0.638,0.843,1.534,1.264,2.686,1.264c0.842,0,1.579-0.119,2.215-0.359
		c0.635-0.24,1.183-0.57,1.646-0.99l0.971,1.616c-0.487,0.483-1.131,0.885-1.93,1.206C216.685,20.968,215.718,21.129,214.582,21.129
		 M214.204,8.919c-0.832,0-1.544,0.35-2.132,1.05c-0.589,0.699-0.95,1.577-1.084,2.633l0.024,0.063h6.295v-0.327
		c0-0.972-0.261-1.785-0.783-2.439C216.003,9.246,215.23,8.919,214.204,8.919"/>
	<polygon clip-path="url(#SVGID_2_)" fill="#FFFFFF" points="226.969,16.84 227.183,17.799 227.259,17.799 227.498,16.84 
		230.639,7.216 233.175,7.216 228.154,20.864 226.274,20.864 221.191,7.216 223.74,7.216 	"/>
	<path clip-path="url(#SVGID_2_)" fill="#FFFFFF" d="M240.906,21.129c-1.9,0-3.411-0.633-4.534-1.899
		c-1.123-1.265-1.684-2.907-1.684-4.925V13.75c0-1.942,0.578-3.559,1.734-4.85s2.524-1.936,4.105-1.936
		c1.841,0,3.233,0.555,4.175,1.665c0.942,1.11,1.412,2.59,1.412,4.44v1.551h-8.854l-0.038,0.063
		c0.024,1.308,0.356,2.384,0.997,3.226c0.638,0.843,1.533,1.264,2.686,1.264c0.841,0,1.579-0.119,2.214-0.359
		c0.635-0.24,1.184-0.57,1.646-0.99l0.971,1.616c-0.488,0.483-1.131,0.885-1.93,1.206C243.008,20.968,242.041,21.129,240.906,21.129
		 M240.528,8.919c-0.832,0-1.544,0.35-2.132,1.05c-0.589,0.699-0.95,1.577-1.084,2.633l0.023,0.063h6.295v-0.327
		c0-0.972-0.261-1.785-0.782-2.439C242.327,9.246,241.555,8.919,240.528,8.919"/>
	<rect x="249.104" y="1.187" clip-path="url(#SVGID_2_)" fill="#FFFFFF" width="2.485" height="19.677"/>
	<path clip-path="url(#SVGID_2_)" fill="#FFFFFF" d="M254.831,13.914c0-2.018,0.547-3.681,1.64-4.988
		c1.094-1.308,2.577-1.962,4.452-1.962c1.893,0,3.388,0.652,4.484,1.955c1.098,1.304,1.646,2.969,1.646,4.995v0.278
		c0,2.035-0.546,3.699-1.639,4.994c-1.094,1.295-2.582,1.943-4.465,1.943c-1.884,0-3.375-0.65-4.472-1.949
		c-1.098-1.299-1.646-2.962-1.646-4.988V13.914z M257.316,14.185c0,1.445,0.305,2.637,0.915,3.578
		c0.608,0.94,1.515,1.411,2.718,1.411c1.185,0,2.085-0.471,2.699-1.411c0.613-0.941,0.92-2.133,0.92-3.578v-0.277
		c0-1.428-0.31-2.616-0.926-3.565c-0.618-0.949-1.524-1.424-2.72-1.424c-1.185,0-2.083,0.475-2.691,1.424
		c-0.61,0.949-0.915,2.137-0.915,3.565V14.185z"/>
	<path clip-path="url(#SVGID_2_)" fill="#FFFFFF" d="M281.723,14.557c0,1.967-0.471,3.554-1.413,4.761s-2.241,1.81-3.897,1.81
		c-0.841,0-1.579-0.141-2.214-0.422c-0.635-0.282-1.175-0.705-1.621-1.268v6.672h-2.483V7.216h1.903l0.392,1.766
		c0.445-0.656,1.001-1.156,1.665-1.501c0.664-0.345,1.438-0.518,2.32-0.518c1.69,0,3.005,0.671,3.942,2.012
		c0.938,1.342,1.406,3.114,1.406,5.317V14.557z M279.237,14.285c0-1.545-0.305-2.815-0.914-3.811
		c-0.609-0.995-1.507-1.492-2.692-1.492c-0.716,0-1.324,0.161-1.829,0.485c-0.505,0.323-0.913,0.766-1.225,1.329v6.588
		c0.312,0.563,0.72,1.002,1.225,1.316c0.505,0.316,1.122,0.473,1.854,0.473c1.177,0,2.069-0.431,2.674-1.291
		c0.606-0.861,0.908-1.972,0.908-3.332V14.285z"/>
	<path clip-path="url(#SVGID_2_)" fill="#FFFFFF" d="M290.438,21.129c-1.899,0-3.41-0.633-4.533-1.899
		c-1.123-1.265-1.685-2.907-1.685-4.925V13.75c0-1.942,0.578-3.559,1.735-4.85c1.156-1.291,2.523-1.936,4.104-1.936
		c1.841,0,3.233,0.555,4.176,1.665c0.941,1.11,1.411,2.59,1.411,4.44v1.551h-8.854l-0.038,0.063
		c0.025,1.308,0.357,2.384,0.997,3.226c0.638,0.843,1.534,1.264,2.686,1.264c0.842,0,1.579-0.119,2.215-0.359
		c0.635-0.24,1.183-0.57,1.646-0.99l0.971,1.616c-0.487,0.483-1.131,0.885-1.93,1.206C292.54,20.968,291.573,21.129,290.438,21.129
		 M290.06,8.919c-0.832,0-1.544,0.35-2.132,1.05c-0.589,0.699-0.95,1.577-1.084,2.633l0.024,0.063h6.295v-0.327
		c0-0.972-0.261-1.785-0.783-2.439C291.859,9.246,291.086,8.919,290.06,8.919"/>
	<path clip-path="url(#SVGID_2_)" fill="#FFFFFF" d="M304.894,9.411l-1.274-0.076c-0.656,0-1.209,0.156-1.659,0.467
		c-0.449,0.311-0.796,0.748-1.04,1.312v9.75h-2.484V7.216h2.22l0.239,1.993c0.387-0.706,0.864-1.257,1.432-1.652
		c0.568-0.395,1.221-0.593,1.962-0.593c0.184,0,0.361,0.015,0.529,0.044c0.168,0.03,0.307,0.061,0.416,0.095L304.894,9.411z"/>
	<path clip-path="url(#SVGID_2_)" fill="#FFFFFF" d="M315.224,17.231c0-0.547-0.208-0.997-0.625-1.35
		c-0.416-0.353-1.204-0.66-2.364-0.92c-1.657-0.361-2.903-0.85-3.741-1.468c-0.836-0.617-1.255-1.458-1.255-2.524
		c0-1.109,0.472-2.053,1.414-2.834c0.941-0.781,2.169-1.171,3.683-1.171c1.589,0,2.853,0.408,3.79,1.223
		c0.938,0.816,1.386,1.808,1.344,2.977l-0.025,0.076h-2.372c0-0.597-0.25-1.133-0.75-1.608c-0.5-0.476-1.163-0.713-1.986-0.713
		c-0.884,0-1.538,0.193-1.968,0.58c-0.429,0.387-0.643,0.854-0.643,1.4c0,0.538,0.189,0.963,0.567,1.274
		c0.379,0.311,1.147,0.589,2.308,0.833c1.724,0.37,3.006,0.872,3.847,1.507c0.841,0.635,1.263,1.486,1.263,2.554
		c0,1.211-0.49,2.19-1.471,2.939c-0.979,0.748-2.26,1.123-3.841,1.123c-1.74,0-3.111-0.442-4.111-1.325
		c-1.001-0.883-1.476-1.913-1.426-3.09l0.025-0.076h2.371c0.043,0.879,0.37,1.521,0.983,1.927c0.614,0.405,1.333,0.608,2.157,0.608
		c0.883,0,1.575-0.178,2.075-0.536C314.973,18.28,315.224,17.811,315.224,17.231"/>
</g>
</svg>
