<?xml version="1.0" encoding="utf-8"?>
<!-- Generator: Adobe Illustrator 18.0.0, SVG Export Plug-In . SVG Version: 6.00 Build 0)  -->
<!DOCTYPE svg PUBLIC "-//W3C//DTD SVG 1.1//EN" "http://www.w3.org/Graphics/SVG/1.1/DTD/svg11.dtd">
<svg version="1.1" id="Layer_1" xmlns="http://www.w3.org/2000/svg" xmlns:xlink="http://www.w3.org/1999/xlink" x="0px" y="0px"
	 viewBox="0 0 374.4 367.2" enable-background="new 0 0 374.4 367.2" xml:space="preserve">
<path fill="#DD4B39" d="M374.4,178h-49.6v49.6h-24.9V178h-49.6v-24.9h49.6v-49.6h24.9v49.6h49.6V178z M234,284.7
	c0,37.2-33.9,82.5-119.4,82.5C52.1,367.2,0,340.3,0,294.9c0-35,22.1-80.4,125.6-80.4c-15.4-12.6-19.1-30-9.8-49
	c-60.6,0-91.7-35.6-91.7-80.9C24.1,40.3,57,0,124.2,0c17,0,107.6,0,107.6,0l-24,25.2h-28.2c20,11.4,30.5,34.9,30.5,60.8
	c0,23.8-13.1,43-31.8,57.5c-33.1,25.6-24.6,39.9,10,65.3C222.7,234.5,234,254.4,234,284.7z M167,87.7c-5-38-29.8-69.3-58.8-70.2
	c-29-0.8-48.4,28.3-43.4,66.3s32.5,64.7,61.6,65.5C155.3,150.3,172,125.7,167,87.7z M196.9,288.5c0-31.3-28.6-61.2-76.5-61.2
	c-43.2-0.5-79.8,27.3-79.8,59.5c0,32.9,31.2,60.2,74.3,60.2C170.2,347,196.9,321.3,196.9,288.5z"/>
</svg>
